<svg width="17" height="22" viewBox="0 0 17 22" fill="none" xmlns="http://www.w3.org/2000/svg">
<path d="M2.5 10.5C3.36548 9.85089 4.41815 9.5 5.5 9.5C6.58185 9.5 7.63452 9.85089 8.5 10.5C9.36548 11.1491 10.4181 11.5 11.5 11.5C12.5819 11.5 13.6345 11.1491 14.5 10.5M11.7 20.5H5.3C4.80402 20.5027 4.32472 20.3211 3.95514 19.9903C3.58556 19.6595 3.35207 19.2032 3.3 18.71L1.5 1.5H15.5L13.69 18.71C13.6381 19.2015 13.406 19.6564 13.0386 19.987C12.6711 20.3175 12.1943 20.5003 11.7 20.5Z" stroke="#00ADB5" stroke-width="2.2" stroke-linecap="round" stroke-linejoin="round"/>
</svg>
